<mxfile host="app.diagrams.net" modified="2021-05-17T12:38:15.911Z" agent="5.0 (Macintosh; Intel Mac OS X 10_15_7) AppleWebKit/537.36 (KHTML, like Gecko) Chrome/90.0.4430.72 Safari/537.36 Edg/90.0.818.41" etag="1qoZ60g154ik4flR1LGU" version="14.6.13" type="github">
  <diagram id="4S3QC9bgzAqs_YFwHSzx" name="Page-1">
    <mxGraphModel dx="1186" dy="614" grid="1" gridSize="10" guides="1" tooltips="1" connect="1" arrows="1" fold="1" page="1" pageScale="1" pageWidth="827" pageHeight="1169" math="0" shadow="0">
      <root>
        <mxCell id="0" />
        <mxCell id="1" parent="0" />
        <mxCell id="CHFiQlu1naVlQ7yCdZNa-2" value="AWS Cloud" style="points=[[0,0],[0.25,0],[0.5,0],[0.75,0],[1,0],[1,0.25],[1,0.5],[1,0.75],[1,1],[0.75,1],[0.5,1],[0.25,1],[0,1],[0,0.75],[0,0.5],[0,0.25]];outlineConnect=0;gradientColor=none;html=1;whiteSpace=wrap;fontSize=12;fontStyle=0;shape=mxgraph.aws4.group;grIcon=mxgraph.aws4.group_aws_cloud_alt;strokeColor=#232F3E;fillColor=none;verticalAlign=top;align=left;spacingLeft=30;fontColor=#232F3E;dashed=1;" parent="1" vertex="1">
          <mxGeometry x="130" y="410" width="500" height="660" as="geometry" />
        </mxCell>
        <mxCell id="CHFiQlu1naVlQ7yCdZNa-17" style="edgeStyle=orthogonalEdgeStyle;rounded=0;orthogonalLoop=1;jettySize=auto;html=1;entryX=0.5;entryY=1;entryDx=0;entryDy=0;" parent="1" source="CHFiQlu1naVlQ7yCdZNa-4" target="CHFiQlu1naVlQ7yCdZNa-22" edge="1">
          <mxGeometry relative="1" as="geometry">
            <mxPoint x="351" y="500" as="targetPoint" />
            <Array as="points">
              <mxPoint x="886" y="750" />
            </Array>
          </mxGeometry>
        </mxCell>
        <mxCell id="CHFiQlu1naVlQ7yCdZNa-4" value="DFP Silver S3" style="outlineConnect=0;fontColor=#232F3E;gradientColor=none;strokeColor=#ffffff;fillColor=#232F3E;dashed=0;verticalLabelPosition=middle;verticalAlign=bottom;align=center;html=1;whiteSpace=wrap;fontSize=10;fontStyle=1;spacing=3;shape=mxgraph.aws4.productIcon;prIcon=mxgraph.aws4.s3;" parent="1" vertex="1">
          <mxGeometry x="201" y="700" width="80" height="100" as="geometry" />
        </mxCell>
        <mxCell id="CHFiQlu1naVlQ7yCdZNa-15" style="edgeStyle=orthogonalEdgeStyle;rounded=0;orthogonalLoop=1;jettySize=auto;html=1;entryX=0.25;entryY=1;entryDx=0;entryDy=0;" parent="1" source="CHFiQlu1naVlQ7yCdZNa-5" target="CHFiQlu1naVlQ7yCdZNa-22" edge="1">
          <mxGeometry relative="1" as="geometry">
            <Array as="points">
              <mxPoint x="834" y="620" />
            </Array>
          </mxGeometry>
        </mxCell>
        <mxCell id="CHFiQlu1naVlQ7yCdZNa-5" value="Xandr Silver S3" style="outlineConnect=0;fontColor=#232F3E;gradientColor=none;strokeColor=#ffffff;fillColor=#232F3E;dashed=0;verticalLabelPosition=middle;verticalAlign=bottom;align=center;html=1;whiteSpace=wrap;fontSize=10;fontStyle=1;spacing=3;shape=mxgraph.aws4.productIcon;prIcon=mxgraph.aws4.s3;" parent="1" vertex="1">
          <mxGeometry x="201" y="580" width="80" height="100" as="geometry" />
        </mxCell>
        <mxCell id="CHFiQlu1naVlQ7yCdZNa-18" style="edgeStyle=orthogonalEdgeStyle;rounded=0;orthogonalLoop=1;jettySize=auto;html=1;entryX=0.75;entryY=1;entryDx=0;entryDy=0;" parent="1" source="CHFiQlu1naVlQ7yCdZNa-6" target="CHFiQlu1naVlQ7yCdZNa-22" edge="1">
          <mxGeometry relative="1" as="geometry">
            <mxPoint x="940" y="490" as="targetPoint" />
            <Array as="points">
              <mxPoint x="939" y="870" />
            </Array>
          </mxGeometry>
        </mxCell>
        <mxCell id="CHFiQlu1naVlQ7yCdZNa-6" value="Outbrain Silver S3" style="outlineConnect=0;fontColor=#232F3E;gradientColor=none;strokeColor=#ffffff;fillColor=#232F3E;dashed=0;verticalLabelPosition=middle;verticalAlign=bottom;align=center;html=1;whiteSpace=wrap;fontSize=10;fontStyle=1;spacing=3;shape=mxgraph.aws4.productIcon;prIcon=mxgraph.aws4.s3;" parent="1" vertex="1">
          <mxGeometry x="201" y="820" width="80" height="110" as="geometry" />
        </mxCell>
        <mxCell id="CHFiQlu1naVlQ7yCdZNa-19" style="edgeStyle=orthogonalEdgeStyle;rounded=0;orthogonalLoop=1;jettySize=auto;html=1;entryX=0.919;entryY=1.038;entryDx=0;entryDy=0;entryPerimeter=0;" parent="1" source="CHFiQlu1naVlQ7yCdZNa-7" target="CHFiQlu1naVlQ7yCdZNa-22" edge="1">
          <mxGeometry relative="1" as="geometry">
            <mxPoint x="1020" y="550" as="targetPoint" />
            <Array as="points">
              <mxPoint x="974" y="990" />
            </Array>
          </mxGeometry>
        </mxCell>
        <mxCell id="CHFiQlu1naVlQ7yCdZNa-7" value="Tracking Silver S3" style="outlineConnect=0;fontColor=#232F3E;gradientColor=none;strokeColor=#ffffff;fillColor=#232F3E;dashed=0;verticalLabelPosition=middle;verticalAlign=bottom;align=center;html=1;whiteSpace=wrap;fontSize=10;fontStyle=1;spacing=3;shape=mxgraph.aws4.productIcon;prIcon=mxgraph.aws4.s3;" parent="1" vertex="1">
          <mxGeometry x="201" y="940" width="80" height="110" as="geometry" />
        </mxCell>
        <mxCell id="CHFiQlu1naVlQ7yCdZNa-20" style="edgeStyle=orthogonalEdgeStyle;rounded=0;orthogonalLoop=1;jettySize=auto;html=1;" parent="1" source="CHFiQlu1naVlQ7yCdZNa-9" target="CHFiQlu1naVlQ7yCdZNa-10" edge="1">
          <mxGeometry relative="1" as="geometry" />
        </mxCell>
        <mxCell id="CHFiQlu1naVlQ7yCdZNa-21" value="Triggers" style="edgeLabel;html=1;align=center;verticalAlign=middle;resizable=0;points=[];" parent="CHFiQlu1naVlQ7yCdZNa-20" vertex="1" connectable="0">
          <mxGeometry x="-0.2623" y="-2" relative="1" as="geometry">
            <mxPoint y="-11" as="offset" />
          </mxGeometry>
        </mxCell>
        <mxCell id="CHFiQlu1naVlQ7yCdZNa-9" value="Managed Airflow" style="points=[[0,0,0],[0.25,0,0],[0.5,0,0],[0.75,0,0],[1,0,0],[0,1,0],[0.25,1,0],[0.5,1,0],[0.75,1,0],[1,1,0],[0,0.25,0],[0,0.5,0],[0,0.75,0],[1,0.25,0],[1,0.5,0],[1,0.75,0]];outlineConnect=0;fontColor=#232F3E;gradientColor=#F34482;gradientDirection=north;fillColor=#BC1356;strokeColor=#ffffff;dashed=0;verticalLabelPosition=bottom;verticalAlign=top;align=center;html=1;fontSize=12;fontStyle=0;aspect=fixed;shape=mxgraph.aws4.resourceIcon;resIcon=mxgraph.aws4.managed_workflows_for_apache_airflow;" parent="1" vertex="1">
          <mxGeometry x="211" y="439" width="60" height="60" as="geometry" />
        </mxCell>
        <mxCell id="CHFiQlu1naVlQ7yCdZNa-23" style="edgeStyle=orthogonalEdgeStyle;rounded=0;orthogonalLoop=1;jettySize=auto;html=1;entryX=0;entryY=0.5;entryDx=0;entryDy=0;" parent="1" source="CHFiQlu1naVlQ7yCdZNa-10" target="CHFiQlu1naVlQ7yCdZNa-22" edge="1">
          <mxGeometry relative="1" as="geometry" />
        </mxCell>
        <mxCell id="CHFiQlu1naVlQ7yCdZNa-10" value="Enables the transform&#xa;from Silver to Gold" style="shape=image;verticalLabelPosition=bottom;labelBackgroundColor=#ffffff;verticalAlign=top;aspect=fixed;imageAspect=0;image=data:image/png,iVBORw0KGgoAAAANSUhEUgAAAYUAAACBCAMAAAAYG1bYAAAAwFBMVEX////xXkkMDA0AAAC7u7vg4OChoaH6+vrxXEdtbW7xWUP39/cuLi7xWEGWlpcBAQTp6enwVDzKysrW1tb96eb+9vXwUjnyaVb+8O5QUFHzc2H3p52xsbFYWFn4sajv7+/6yML0g3T70s35vrfyalf5xL3829f1j4L0hXf4ta3zdmX839v3o5jCwsJjY2R1dXaGhoYzMzT2mY5BQUIZGRojIyS1tbX1jX9/f3/wSzBERET0g3Vzc3RRUVKQkJEUFBXbu+4LAAAQkUlEQVR4nO1deWOiPhMWqZrGUkUBXbXeV622HrXXu7v9/t/qBQXkmFwY2i4/nz9bHCAPyUzmSi53wQUXXPAvoFRKTbTZnE4mU8NM7QbZQLPfnQ0Gr92JIV+2OdkqlqXr1vt4O5QvPjMwZmOsYRsabmwf5Mo2Ry2sIeUApKHFVK747KCreMPkDBRuNyXK7i90X7YjHuO2ROnZgTEPjZPNg3Ivi4fpAGMlDKQvJQnPEoyWpsQGqjWSInoW4+AgvStDeKZgLmIkHEaq0T/XoDG2moYA2fZku+joCJY6NFDOAv56nh7tjmEObODFxWQNYYhOehlhFBg3hN+T82COGlFlo+snVvSLhg5h4C/cWGnMFw0cHDusLJOp6eEgPA8QbrUnk+XYk45al8kQgGH53+phn2COxkF9ijSrK87DdK6HlTKyXGXfdScbwn2pr/GPo+upZt9uMRqRlWQ8EvtujZkSM07v/fu5/9IuZlIAr9hbIvw/9SPqGlmtPr/A5hLFlDIenHh0OcavsnxWnWIMV3HZvfhVxYKkJzgb5sIdMa3v/625iI4iwosh36CZ3QZgGAU//OVx8qGBLMXwocbwGH/YQvwq9UrSE5wNo+Wu00rAebSNbyCwNeMxl0Zhb4UHvR+45DjTUEMWC7/UfATqNcRC9Kr8D2dhCW3jsD5jefmGC8IGQZ+cLnJZwNLmQgZY8FYfhIJzAfA6OOuK0qWN3MNMg38Hrkjy9EIGWMjN3ZHTfSsm12wRtrw0s/VhZpE4CCsBVzvLs5GywELbXX1Qw//TPbQgeTy0JpAUs90g/8j58v0x9yxVefuFLLDw8O6tGq/uZ94HFazPg222RtelZleh/sbG+3ExM9vuJhGNpe2ds8BCbuEtJLg1aprm9BUxBhRpi3Ygfmw+bFssDhzpi+X9/bbl3UyiHykTLPR9xxHSrXfLwuwRtfXDeHs/6ff7k+5MsYie08iPAt48NJYXzcsEC75+FoI9phpCSNM4SAOgSYkhHZENFqYWe9RgJhIRcPhli/1Y3NhkggVoq5wu5DpUb7LBwoOS+KNOBjyXmX2WERZgj0WK0KUmPGWFBeNrJ4M2l/r0P4uF0upvUoc5ZbcsH6ghNwfzp7BQra+KdxVVVWsJBZjjL5wMmuScsO9noVQqFNd3u2ebgYotNikLnrv5K4A0yYnh38tC/arztjsGjSqu2MQsmIMkW7dEkB5w/lYWyofxD4tNzEJuKGcyIOZODknPB/tmFuJik7OQkzMZBgPEkKODnvFzkCUWpjKsVaTM+gOqPxDL9F0ckSUW5GzdkLZ4GM6hPG2PJvlpwplioflOGjohYHs3MFxYhOmAB+e/eBQ3lQyx4Mc+zwSy7JV/AmdjIF1+0Vz1OVMsGKSgvygNqG/PrDa0LGnb8987ioyxkBslDTREabCcxd+YxZYl2b6LA7LGQk6WHwM1Dnl8o2hexlnB5lK516utXm4drFa1cq9cPoy1PBZK5XK1drzBbWdly+d5KvksTJKFL+PArUNY2RiEqzsbiYPN1avbx5tIlmn+13Wxs6r29lJY6F0VHzfhG+yeOsQB7VWPAMV6/wyB32/zP1l+DNd5XeoGeU0abO7V7m5ifoJ8vnL4280uNgwJWKhfA3dw/rC5rUKPVHrb3xwR+wTyFe9fQez/9LjfN3EIOk6Du/hMTqUMSVOQOjvfUQagEh9dYRbKb8Q7qOpzB3im0m+1cgT0SADUO4E3nsmaDMhyU7wNX9kEE7f5UdvEJgETgiwUPmh3UNVfcQVRpv4EkvIm8M5S/BgH+FWcXjV1siTtN3EORFko7xm3UO9iNIizcCvy1iJ+DET1oOre3sD1musJykXrce8E1yuLsFCO5zPFLryJ0tCLG2YMEXWR9+YOQSNN0zDWKGlhlrc5aDp5kUmCzSvWV0p6ZREWHjnuoa6jLAg/klhoq8s1GZC1aA8NJ0l1NFMIGZKnfBd7Vx6qUuHEVZLV6PDKAiy8cd1DjajoquCTVW7EXt1s8OSptgJln8Y2VtJ5vMrxZBwxxQkakFx9Cs7605jxs3DLN5zqJrwmibKgPgq+/IQZdUN4GVa09u4MvO5UEjGyhFVznWKest6Zm4Ur3puoxcjDCT5RMfZAdDBD0AjHwmXmEi4qPG3ThFVzIZ5+yv/OnCy81Lmnm7oJ7bquRFkQdln16ZoBICFHyHVFreT58XfJSeBlIb/J898krBmKgk/3Ke5bipU7h0DwQ8wgGrTE7jvR1wyPGCcLIkue+hGU9lfs8dQN6AehYkLzY+AZ/CMDsliRknAyVEkbBaB2HLiIkwUXlYAwIjGV56DFvxZk4Zf4EBgUDzdSwiEC05gOh9OHJiHLMmlYh2DEq+rubd3pdOouOp3105+zWHBGfvPr7vfvp/X679P1x55oHYcU7KPnRoJYA76U3wnGgOJN0sJTYfTasGwoi65pQCYuQoniOrAhqKp39fjMLiWOOzvD9Xhbqxd6vhnaK1z9IfAQautQ8L6DGqD0n2oxJEkgpiQPh5Le+w036wUhXTFeIe6ShfvBCa9uYC9A8hyMa1Bg4TdMQwWK+kBRHiGXERnkRD20CCz096HGYq05GO9HCVJfqpCVqu4IH1RyFlawwBK8lQNdQVDEUxILTaJ6Dq7z3XBcmeDZwwvx5OAVRMINycxIIR8JnovQzitFFnJkFk6m5wNHkbMDXTzCBulm8pClwEJ1Bz0BpGK/hwU/4Zo7yztBhzzAbUxxxKSRmwftB8Bw2TfPhSF3IAKLpspDThqVbGWkwQJoUe0A9fw9LPiuUdAigicDEty6dYA3A6KOHlLJU4WmI7QBTpEFg8gCnnvLC1/bhSN1gls3YDmg+SRTYeEpfnllDxhJKbJAsVQ9l4QpkK0hGOEpQ448ijcsFRYgpynkkkuRBUresGfxGCK1P2Jbt2p8M1zZU8zdVFgAdROwv0iPBZOy5nsdLIRYUCyR8ALgvlB3lOtTYaEQz/j7YhaoGQD4OBlEViTBLBjQ10C5PhUWoB0DdH16LFATALy8a7HEJU2gmg1YkqkvlgoLkHJSX4DrUmOBPsBuupdYIxmk8N8eCPBA7+8jmyyMGOOLB46dNBQwVZVQi0oWACcONacqHRYAL8pXstBkVjFozilTpliLMYECEogFmn8+nepCIE/pK/UCR3kbwksjZ4i1CtMIkdI4oK9QkIVoKl1ODgtfZyM1edQu0pRtvy1Cgs0c72SANm2CLADj8G+xwJkujAjnHpHBPRl+BAuQdq58GQuG6OByA2HOqNtPZeEL/Uiv6fWrwgu+R4BsxP8WC0NAK0ibHJydI38EC8De+es823HzEzU4krj5wBl1+xEsFDbx/JoPwKWYBgvRE3kO2EqbDXxbN85dq49UWKjHrv6yiCcYS8aze1JvEVHwbd0gFmiJ5+mwwOlSTIEF0Hdh2zaj5L2cw+DKHoYs9SfK9amwAOXcQaObAguwBsCD3EjSbODqCQN5MD4o16fCAuRShAqf5bPQJURutEluIkk38GzdgLAztSwsFRaugcuhtDSIhb/sdySDeByP48seKlI2EkhhR92AFIz8J8WpmgoL8XrmSh5KA4FYOKvVDDli4Bwu2Zxz5uLRwdE3D8yPhFYDF6mwEK8wUe+g2DfEAiH9lQtN8igfbBtC7ZooLKYfA8zIoqjnNFiATCTQTpOtF2jBs+Ny3m9JcDKx+6lCxQuVPLkkKQ0WgHQk+GqIBcCvzgvqIQzuCfHNuYQGShpr61YF0h9oS1IKLABToXIDttaBWBCtbQ6AnvzrnWbUh85KFQPCjMnQgxpTRCpdg5DPQg+oqiOMLcBCXqW/HwWsDs9elqMxO3sHx+zbBiwHtHkunYUemLkP61yQBaHOIwGwo8i+Vu2Pz9TSzIRJuMqWuCbJZgEK/Ocre3gugiyI9EIKAnTjhcdu7I0d67RIJlhbN8B7cHi5ImQq9upA37xzWKhDFSTEqViCiqYjzsdetdC55jCcShytVLVTsul0cJZHA7HO5SH0RVAfozz0rtZ/gBJlXhbW9egHXn55gks8SatMCeKsonrHqBdqndu3P3tV5TFfuU6E0QMJ8BP4NG1OnPLvYQDug+NQqOrNm1fsvCrePcNF57wsHAqT97vH69vi7e1t8e/1r2dYHi1FE35WW87nxi98rnBtqE16zwXvE8YBG9Ns4zOsJY2+dSMsSd7AHSq+aYX6vCw4CBb+kyv/yQqX2CqiEpLGobGXfAnY6D2YbWpuUeLdQ6BnDwTQVhWACAt8Asn6dsXXTINtvbKz8fzBC33DDwNyi38GML3wU6AXSQVYQ2SzUFHJzVDB2mxABLPemL9jIdLDS8kwqYuP0Wa4zN2hqvJZBE5TlcwCNeDK03ePXoBxgEiqY/QUi1IfbvHPBOO4MN7ONxVb68U94ZJZoDuGIBdwXATTq+F3NkKabrEOa0ZRN1BpxLeLOxwerZ8aDSvUqBtHe83j2xWh8ZXLAph7EXhUcH8RlcHy8PmNbHFj2Z8O2y36Wo+0bdTMvOc461xb3BumMRr4Cp1xYBhfY7qD1uzFIjJSWVDvGB2moKhUTAglPnKApxW0+XEv1WTUhyA91oet2VUYPPjUtT1zjFVkxdPc0bXiY+kCMllQd8w2XxyTgbVdKLlaATX8UaH6lJA2AIx9s0udD4Ft2hZ7chi16GwavMU29jHKY0FV1+xTGAoczXcZffO8NvPBfo/kfQDS0QT+hptdnaxSAo3Op54twKz7XDOa2qo7136MrV5UFgSa5dkbYK4Y8gvLpANTXINwSwmDCVvmgDCcSBtTQjRmu0GaD++By7x0G3boc0Xtsh1QmtF2CTQWVMexwMWEqt7c8hxHYuPlk/ODIcFVC6gVYAGud7ZNqCU9ncgguDUQCly04GYhV12T/DpOP/7Teh012cksqOpbtfDy+Ex1V+SPjpJNh7/xY53cb+8gjNW90B1xJgsIa1t2ShdBTwfnQoufBYeHTWy8Dp6fP8GBjtbmEllQd+76XO+s3RNmIv0Hjw4q9WNdFOu9WXLO6ogS6wrb/S6yvEhup8Jg6AVKTMJ4zle/b7SB7ufWSbjpGcYWX4VVr/a22YccbvvNdacQWirq0ZaNQF5Wwfn7U2Boy9XCav24u9l/Bhx6+eeb3eNtrcp/fEvwQXf7z1CL0ef95nG9KvTY3dJ8Q/W0mY03F0bW//rcjwPMh4Bwz4mOFP52ANVVp3hEp7OqxT/SsvdvD4BF0rP/DKraQn3V6XjSawVOTQCjXL86ybqqFbjJ9M7XRv4pFbGWnEhrEQwjAprtSJIAUvruv6aecPwq+bDtfxp+p0LUONqqw8jmGWn4XrhDsNFF4UPCcNeRYY58hpMeWJVR+CkwCI9ny20r4tvTlHaiLs1mO7SPQ5qymC8a/k4k6YFVWcXkpAVsO0hD4U/4fSZ+hoiLZhuHeEA4INuSfe78vw5yWSfCyTk4oD0mnRaT6MCqLIMUX0D6uH+27C1YnY6089jNIoYQDUhfSNGfzW08LIo4a27/W5jEvldbmXaTnyMSxnQQEY+1viTR2cI07Je2jdNkhhEBo6B4e5IlaID+n4Czz/KsSKfhi+Rlu7k8ikdI08bti2ImwrgfYMvSLctadBOc9cgWPxvr7/p4O5I5yTKIkvkwHA2nZlqfqukgJdkXXHDBBRckxv8BCu93r59mcSwAAAAASUVORK5CYII=;" parent="1" vertex="1">
          <mxGeometry x="411" y="449" width="120.62" height="40" as="geometry" />
        </mxCell>
        <mxCell id="CHFiQlu1naVlQ7yCdZNa-24" style="edgeStyle=orthogonalEdgeStyle;rounded=0;orthogonalLoop=1;jettySize=auto;html=1;entryX=1;entryY=0.5;entryDx=0;entryDy=0;" parent="1" source="CHFiQlu1naVlQ7yCdZNa-22" target="CHFiQlu1naVlQ7yCdZNa-10" edge="1">
          <mxGeometry relative="1" as="geometry" />
        </mxCell>
        <mxCell id="CHFiQlu1naVlQ7yCdZNa-40" style="edgeStyle=orthogonalEdgeStyle;rounded=0;orthogonalLoop=1;jettySize=auto;html=1;entryX=0;entryY=0.5;entryDx=0;entryDy=0;" parent="1" source="CHFiQlu1naVlQ7yCdZNa-22" target="CHFiQlu1naVlQ7yCdZNa-45" edge="1">
          <mxGeometry relative="1" as="geometry" />
        </mxCell>
        <mxCell id="CHFiQlu1naVlQ7yCdZNa-41" style="edgeStyle=orthogonalEdgeStyle;rounded=0;orthogonalLoop=1;jettySize=auto;html=1;entryX=0;entryY=0.5;entryDx=0;entryDy=0;" parent="1" source="CHFiQlu1naVlQ7yCdZNa-22" target="CHFiQlu1naVlQ7yCdZNa-46" edge="1">
          <mxGeometry relative="1" as="geometry" />
        </mxCell>
        <mxCell id="CHFiQlu1naVlQ7yCdZNa-42" style="edgeStyle=orthogonalEdgeStyle;rounded=0;orthogonalLoop=1;jettySize=auto;html=1;entryX=0;entryY=0.5;entryDx=0;entryDy=0;" parent="1" source="CHFiQlu1naVlQ7yCdZNa-22" target="CHFiQlu1naVlQ7yCdZNa-47" edge="1">
          <mxGeometry relative="1" as="geometry" />
        </mxCell>
        <mxCell id="CHFiQlu1naVlQ7yCdZNa-43" style="edgeStyle=orthogonalEdgeStyle;rounded=0;orthogonalLoop=1;jettySize=auto;html=1;entryX=0;entryY=0.5;entryDx=0;entryDy=0;" parent="1" source="CHFiQlu1naVlQ7yCdZNa-22" target="CHFiQlu1naVlQ7yCdZNa-48" edge="1">
          <mxGeometry relative="1" as="geometry" />
        </mxCell>
        <mxCell id="CHFiQlu1naVlQ7yCdZNa-22" value="" style="shape=image;verticalLabelPosition=bottom;labelBackgroundColor=#ffffff;verticalAlign=top;aspect=fixed;imageAspect=0;image=data:image/png,iVBORw0KGgoAAAANSUhEUgAAAcwAAABuCAMAAACdptPlAAAAYFBMVEX///8ptegAsOcXsuf6/v+a2PNRwOs1uenT7vrc8vuf2fP1+/7u+f0vt+mI0vGU1vKw4PW+5vd5zO/Z8Pq75Pbk9fxvye6M0/FDvOrF6Ph+zvBbw+yl3PTU7vpawuy04vYFkG6wAAARpElEQVR4nO1d6WKyvBKWBEEF3EEWq/d/l4dMQtYJhH7tq/Xw/GoFQ8iTTGaNq9WC/zs0h/PtFCMXLrt2f8//eX8WfBublFBKSXG1L+Qdu0Dp4RW9WvAdNCTiIEfzQl5QcaF6Tc8WzEU+cNmTdjGuJFReWL+ocwvmoZWURbTTLzSK5Yhmr+reghmI08jD2ZlqF04v6+CCcGTa+ovIVrtS6ywvcvYvIDfI3GhXjCW7KLR/AQuZH4SFzA/CQuYHYSHzg7CQ+WcRl5fS/OR7ZJaX7eJGeC2yW0EITdd6fOQ7ZF5rSkhUWdNiwb9EmXKfDk21+Mh8Mi8J/wqlzT/r+gILcaFIe0hXz1wys7PXMb/g3+FGddrOYs+bSeaO6K0k//od/hny66E9V3sZlz/Ueyx4H4Br8gv7kbYwuZDcwcezyDyl1GjkU5fm14NH5WkqGDyQfvp/q6kNiWj0g13j2JLIBE3ZnjeDzO3DaeLoedjfxkGKn2G2Jv3f6beW5ppa8YsfwcZmon9IV4aTme0JtRv4zGDKQdMKhJx9NzJLl8yIkn0ZSOYxcqj80JXJZ31vfPVm3FN89m5kWnvmQIdBkZdM6z55/yeamhDHLXaXLFbsvRuZqwPKh0mOl0wU9BO12QssTCu99O3IjNNJNueS+YkLk42+FK8D3o7MVT7J5iwyKd14H/WH0VEkf+39yOxbdhXSb5NJqs90tbMts7Y/fEcyV/kZ0Wm/QyZJvn6lgy9HzBam4x94SzJXq69khM5QMmlhbyofg5hg0ds3JXO1ehZeWRtGJqW3b/op/wBY6qnwdGp4WzJX8cG3dQaRST46kPnXyOy3zgqXtQFkkvojdViJv0fmarWpMTonyaTF/Xf79XLEf5DM1eqOOFsnyKR0/5nmCMfm1OMJ2mzD/tTie79EZjl/OGP8O0gYxPC11jaXLMiC4NJsRvsUN7u26rpqhwQ/N9Utk7fd26pqd83kC5bXG2uvPSLWUXw4z9sGsv1ZDLWoLOazloHs5V1+MrfHPevM/qgRtumUWjFCZvwg1ClwXuWn9blv8bzGBuKaEEJSVDqWnSVrC72/rUk1D386HTpAeKHylspfO0JgiPrBSe/WeGz7S7yMsKmIiAcT0rlvqJDd66E9Smhr81kROi9invbNQOexEKEcTg+Z5aFQnSlugsGSfTbc7Cczrtkls1HxdqLFhx2UEqoOLdCivMbw8NGbfs14Oxqh0+EpZDUl+HpoCmOIaGR2786+nbNu6EKiHxdfqpitiPcvbFCXFf1nrefLaAf7/hGYPF+zyezVSKszfE4zSS3Hw0tmxriUAVP+kW1mWKNeqernBzpjd9rWWZgLW32XkhYTfroDAnW634brg/zqe6H3fsfJdN1SHl9h43qXdWG44ntDMWNzY0WoYilXjphVvgOMzKMbFqSUDX4QmZxLY+JdEQcATRVr+uryMJKfxXSgkcVHPNTB4/PAdA1S5NyDQSrQ+nxruwJenhbamzEyizIZVndUFNHQmRoR3Dsib0ySusBuZWudhFcGM+ddlIp/muPz+TwyEVc92V+aCEfIrGRn0jpJh36TKg4iM4NpafgN98No0aJI5UBERC7Os8G1R1ZC+hKR+Xoa1mwjIyk6ODtrYlJn9HnvaHoUV7ZC48q1Nnoy+Woj6e6Sx3G+vXOjiRa+9kjbwKV4u0vFrWoW5tSu5h8F6K7GoISaJolYwrcNdCb7OnARR+v4Ok0m55Lo67LjXyfVs2QPyrb3hA8XGTY/27zAtZhV2Rw9SuTm+USl88kRCcRumWeQEX1gwFlBH/L/3dCIsaVvuARKVyZa3t5N7+jQDUU82xvceeVD58zCQKcB76J5I8+sofVxkkx+jouxQTw4cXu9M5eO6GxGDjz2xTxsEW+9o2WDNmxTfCf6pj+QSStThMEatGIXIGNpao8LUNwvh+F/ptHQUM8GS4Cy1nEYmaBO0Ic1aTLlWBslsywim8sznwc2NyfeGFcbHVsRJMOoJbftkiQZTdTK2knvEQM8zIk/bAqikk0Ema7+uSZ2i6Bs0oer29wt4lmDTjzSg527wwaReUQmG0BqfGNkCi71oeENImoHLynh9v/NFoYwdtEIV1+wFZKREj7MdcRgTRE4+YK48yb+UoPCycT2OFjWeooR2zDwnCNgU0mA/Qz/Gei+ZhdDyMypZ+j50yfILPkNepbqSIMZMA8vjuVXRmPe8ov4Arl5bkCsAz5D9taNsGXa+54FQSZmSqTm0gSL1J4vAq2uksIbIOWk++Lh7C9wqyUVQshkMtGXzNbRCTIFl44B6WuwhMUF8eO1JxTt8dlslFmKsun4jCSXjkkdTCaefHsi+lyNo8jdfyVS+brDf4V9y4H0Spb9ISxiy4cUQCasEF8yWzaxMrdc0THemTfo2/yuaiB9aT+UHtwFsdHuRSRttsfTZ1GzEFLlJxJr+crErxmccOvP1wycJSb3STA1Ld4haZjYKloUudtrAJlsDvhz+Y90jMyvyOUSRMuI0sYWu+j71ruYnNyPjUGVwyaa1M4nBvZqcHMy6o1hZPq8bzd9FNhgUv9GyC7Le8HUtJSTJ4yBJcgajLcAMuGd/e9VjJDJR5iYAw+eC0dsKIDuN+gVdu2WoisxbMiLxbrJJh4BhfvOqMhuubU4FsQAMj3+GhhqsZZADj3w++ANib5WmPFoba8J76g5HdhOReyuT5MJHbM1BA0gbnAyuUPOlhAn9JHW06lmz/no1HZG6WmWN+tX914qa0+UQihfJPEHQcA08EjiUntFcNSM5JDBRiXJhsEx7havZgqBGJ0h02TelDvX23GcTH60pLP1g5Qd24/u5pzPfCmWynJVMvbY1IOCLdm8BctqrQ9kmBznBpdKwtGOItO00hZbQzrYtiJtDNggDZYGr6ZhKcE+7Ey0aTJhnYz0xVTENTI9XIpM3dgPR0G/OMWV4v3EUyWXLE9dudhFE05x50ATokUp3OVaJwXKZyiZSTThCDCXuD3VuRkXWVrGI8KsomkyWUOj3t8z7s478TF1th2wJItRRM4jsQiL1BEzKVpBVVdsnuTwIBNhKk+vUY/s+Wyd9wgls5gav6uhwX5ZhMDWvI/MGQFi3HXiTJIJnnifFS4f55J54kEBV1XMfRuYCWsyxwf0a3BtiJUN9SOxcASKbQZxC/bmSECCxr0gOp8Hk7lAMpncxJxnChtiiEzWXc3EBbuEa/hKxq31IbceO0ZmSVBKNKCO9uswwM5u65F6OE96TxOEEyNpQvJ/FG5TGMMY43JM/9LQVFTn04ipBpKZqVnlwcbUeXaGN6Dhjp7G9KpbhBuPnSRz1JOPxTOfijH7fbl2RidAbP05P2OkZMNoAIaxPhtkYoW6wSUKcbOvJZ9U1zl+bGUCUUrfyw3rgZkqbHEw+uRW+oV7/abJzKcMCWRllkctJcPe/GFldrf9OOzBXqMGCm9bOnGFlT9U5opw5AP54qzioXJXU7NJhl/aM0Wccng0ezXmLwANf9jtWo9V9AN75tomkwr3+wWNtkwvdRce18HQ8WE/pcCm/E8ECo+4XB/JynOxvQ15QHKW/ZI2a5K7H+JcXMkTlDjmi/7YH9ZmRQ7CZojxms1nCMHjwMLJAOmkUmzm0qpUQV9P4Qmd9SMZsXBeSJ/yz9mZkRnLipUvFxwKqWxG7KwglzEP/zSZTEqRkb6Au88kEz4BzQesBMvU9OzePuRoOJkNq5Y+IwMsQyadHsAvvX5Z94eKxjoCL6PO+wokc54HiAHoB3aPyi1eKod8J69jj532AI0o8q4HCMaJa7EZrArT3wNzLLiCwRdOtjIa7XCZxqW/1ijSD+ILQK0WSjiZENMb8c1enTjGRq48UHvEM2BRfQ2N48HgSTI3E77ZteObZRjUC3gVMyIOvQ880Fc655xFZRuKph1K6yysnYi04VsnePOHPO5QMs2wiAtGmKXNsBXAtJ6NTttpCKgckTCZ9tjpqMnIr/bwIbHIVCMNTj2qz0x9L8exT/mq864oLHlEZ9NYlxx3bzhzxulOhcZLMJkgK71ax2nQVzWshUpUGUIRHp6LKIr/sQHxTO9K4jkRlgKkewp4ZpqdzTXmh+i/AfOx9Iw/JWj1s5K0jjnEECNHronFOaqs60i/QyYPLvuSm6ED1tZd8q/nRtyaO/bW/CLe45BMAzoiJ3LqrkzrYF4w4fW8kXI8js9dRCuvFur1qg5sIuuSP9cX6vbmdNggkdJMg8kUOXj4rZD36Mw9tj+mYC9rYgOGWnyKsxGSAwQGhmeAEoRMm3hHpa1GGuQ6E9scjrhtWftHnrNJE++e4MvoCkxvbIZpxhBOJlecaqxXB0N7lAANuGErWg+NQOrUCT0eRnvsVHYeDBEq9WWwbYxMnnEXmXn4vm2ExzxYfn+HUTnublgzR2A3llqLh7odMVHuEbEIDnzpZ51BJsgarAIFbGLEcwtqBUxqfXsCRyh86hmEoLxZ8LRigy/LQcYz2nlWl2ZbctcQkhU8FIux1ef6VD3lQ/rXy3IisoWeJuSkf/Rzwomr8Gkm4/QzyBSCNrJkSgapjegGLxeJ8TZDqMFXwhCW0Y4noPMSKOoLTmsAlU23jXiDhSNfmkj5jBwyfdUJXsUYv3BxHUo2mTw7rzMGn5dzqpeYQ6ZwSxm7fSz0a7fIaKViB+YCeooAgi/VL7DWBCkNybktQLuAwiGRsq/pYDzfllTGrVtuioiIieUgp3hBV1MVRXpGvOb5oS4KvFbham+dTo/5ZCPprcmzeBXnzUGEqpXFPItMwSalj2OZxXGWN61weqZ4E6Jf5lqO0U+txwZUgYmiLVpdoTPltRKuym4VQibXefQ0vUo0mNy3GZSBlc+ONzlwftdHnNIdts62D8KH3XH2XkVjvgJ4g07XuyiEMSWkSNNURTXVq80jUyUVkShNWQE6/8+nrB3snQnAKza8BbnBR8cIDymrf9c6w6r0wiqnE9sAvWlvV9ey/FQp43pUGQ9xZK0KNVqi5ypFKS6cS90fYf/6OMMJcSPSVGtqJpmrDVY57TXfQc1wiMkdm919bNDRMVescppZu2Fk5oU91Rosr0eve/uSBbgJmh1oOHVMwzvTrlCCHhqjcmk9vy2wi+yyf8NUHyMTP8TOckLR0TQk3S2rAD52b6rkjEOdtHUwDBLcwhbBNJnCsWl0z4k4W5bHNmGl+iRFYxu2zWgohXezp3jV9ZEVt1PqdwCdqoLI1Id6bQ7tpr/kPU06odixF/HxodpL96N695VQ4tos7KEjTvt+SNwN9U7cvI0e+brWXm4nXi5nlezDLexAFU98q++erYb3b0f5cSPQZHK0J9Bm3R7wemnHbWvME9tGxRO4smf16HZjYxpfnodzV53XV/eupvMbStm+w/13+Wl3rrrq9pyM1lwrTAY33djZVGVVIzvGvfP4TssrvNxBf7lLpeX4N5U3DPHskEsZOw+p67rqcA0PX8Q3V+YbJVGuJ/Czj0D8w3hiMc6ps/M87vkFL4WnCmj6VEs6FvBf8AJ4Y5wh581++hmlfwsxnnIZSubMnLwFvwm85GQOmZ7i2gX/GoiHfD6Z0cycvAW/gYlfwpjzuyYk+fXjjReMwZty+Q0yowhziSz4V8Ar+r5N5pwDBxf8MJCjjv8bmdGs2oQFPwmkNpMtr/9AJn621oLfB1ptTSPjVzX9ZFZoOntwfuWCnwUmZUmbZfrH/p8pXhvnf8uPA6unF/wwXDIhXh3+a/CIXbOQ+SLYYlbY/eFkIh6HRcy+Cp2Z3CU00TlkOjl5iwL0KuhyVvnK55FpeunJImVfBlnipUexZpKpJ5v4zwxd8Ps48syjSI8vzyYTItvQTnAV34LfQPxsq70Z7/gGmatVczu39yWo+Xb4FpkL3hMLmR+EhcwPwkLmB2Eh84OwkPlBMMnUyxPqhcy/hizSyTQKh/SSvvBDmxa8EDpn3pK+iV8OWvAmaJScNX8JR1uzixf2r6D1Oc5P8gJ6mseCd8ReHFDhLL+TOKDC+cHVBe+Ly76OUvdXR3pJu0uKtFsqEd4C/wOz9MnS1LdkawAAAABJRU5ErkJggg==;" parent="1" vertex="1">
          <mxGeometry x="781" y="443.89" width="210" height="50.22" as="geometry" />
        </mxCell>
        <mxCell id="CHFiQlu1naVlQ7yCdZNa-27" style="edgeStyle=orthogonalEdgeStyle;rounded=0;orthogonalLoop=1;jettySize=auto;html=1;" parent="1" source="CHFiQlu1naVlQ7yCdZNa-26" target="CHFiQlu1naVlQ7yCdZNa-2" edge="1">
          <mxGeometry relative="1" as="geometry">
            <Array as="points">
              <mxPoint x="635" y="280" />
              <mxPoint x="370" y="280" />
            </Array>
          </mxGeometry>
        </mxCell>
        <mxCell id="CHFiQlu1naVlQ7yCdZNa-28" style="edgeStyle=orthogonalEdgeStyle;rounded=0;orthogonalLoop=1;jettySize=auto;html=1;" parent="1" source="CHFiQlu1naVlQ7yCdZNa-26" target="CHFiQlu1naVlQ7yCdZNa-22" edge="1">
          <mxGeometry relative="1" as="geometry">
            <Array as="points">
              <mxPoint x="635" y="280" />
              <mxPoint x="886" y="280" />
            </Array>
          </mxGeometry>
        </mxCell>
        <mxCell id="CHFiQlu1naVlQ7yCdZNa-26" value="AD" style="aspect=fixed;html=1;points=[];align=center;image;fontSize=12;image=img/lib/mscae/Active_Directory.svg;dashed=1;" parent="1" vertex="1">
          <mxGeometry x="600" y="130" width="70" height="70" as="geometry" />
        </mxCell>
        <mxCell id="CHFiQlu1naVlQ7yCdZNa-32" value="Read as External Tables" style="text;html=1;align=center;verticalAlign=middle;resizable=0;points=[];autosize=1;strokeColor=none;" parent="1" vertex="1">
          <mxGeometry x="827" y="530" width="150" height="20" as="geometry" />
        </mxCell>
        <mxCell id="CHFiQlu1naVlQ7yCdZNa-33" value="" style="rounded=1;whiteSpace=wrap;html=1;dashed=1;" parent="1" vertex="1">
          <mxGeometry x="1260" y="280" width="120" height="390" as="geometry" />
        </mxCell>
        <mxCell id="CHFiQlu1naVlQ7yCdZNa-35" value="" style="shape=image;verticalLabelPosition=bottom;labelBackgroundColor=#ffffff;verticalAlign=top;aspect=fixed;imageAspect=0;image=https://www.pinclipart.com/picdir/big/127-1272678_datenbank-icon-database-icon-clipart.png;" parent="1" vertex="1">
          <mxGeometry x="1298.03" y="310" width="43.94" height="50" as="geometry" />
        </mxCell>
        <mxCell id="CHFiQlu1naVlQ7yCdZNa-36" value="" style="shape=image;verticalLabelPosition=bottom;labelBackgroundColor=#ffffff;verticalAlign=top;aspect=fixed;imageAspect=0;image=https://www.pinclipart.com/picdir/big/127-1272678_datenbank-icon-database-icon-clipart.png;" parent="1" vertex="1">
          <mxGeometry x="1298.03" y="410" width="43.94" height="50" as="geometry" />
        </mxCell>
        <mxCell id="CHFiQlu1naVlQ7yCdZNa-37" value="" style="shape=image;verticalLabelPosition=bottom;labelBackgroundColor=#ffffff;verticalAlign=top;aspect=fixed;imageAspect=0;image=https://www.pinclipart.com/picdir/big/127-1272678_datenbank-icon-database-icon-clipart.png;" parent="1" vertex="1">
          <mxGeometry x="1298.03" y="499" width="43.94" height="50" as="geometry" />
        </mxCell>
        <mxCell id="CHFiQlu1naVlQ7yCdZNa-38" value="" style="shape=image;verticalLabelPosition=bottom;labelBackgroundColor=#ffffff;verticalAlign=top;aspect=fixed;imageAspect=0;image=https://www.pinclipart.com/picdir/big/127-1272678_datenbank-icon-database-icon-clipart.png;" parent="1" vertex="1">
          <mxGeometry x="1298.03" y="585" width="43.94" height="50" as="geometry" />
        </mxCell>
        <mxCell id="CHFiQlu1naVlQ7yCdZNa-44" value="Warehouses" style="text;html=1;align=center;verticalAlign=middle;resizable=0;points=[];autosize=1;strokeColor=none;" parent="1" vertex="1">
          <mxGeometry x="1081.97" y="660" width="80" height="20" as="geometry" />
        </mxCell>
        <mxCell id="CHFiQlu1naVlQ7yCdZNa-52" style="edgeStyle=orthogonalEdgeStyle;rounded=0;orthogonalLoop=1;jettySize=auto;html=1;entryX=0;entryY=0.5;entryDx=0;entryDy=0;" parent="1" source="CHFiQlu1naVlQ7yCdZNa-45" target="CHFiQlu1naVlQ7yCdZNa-35" edge="1">
          <mxGeometry relative="1" as="geometry" />
        </mxCell>
        <mxCell id="CHFiQlu1naVlQ7yCdZNa-45" value="" style="shape=image;html=1;verticalAlign=top;verticalLabelPosition=bottom;labelBackgroundColor=#ffffff;imageAspect=0;aspect=fixed;image=https://cdn0.iconfinder.com/data/icons/super-mono-reflection/blue/gears_blue.png;dashed=1;" parent="1" vertex="1">
          <mxGeometry x="1098" y="303" width="64" height="64" as="geometry" />
        </mxCell>
        <mxCell id="CHFiQlu1naVlQ7yCdZNa-51" style="edgeStyle=orthogonalEdgeStyle;rounded=0;orthogonalLoop=1;jettySize=auto;html=1;exitX=1;exitY=0.5;exitDx=0;exitDy=0;entryX=0;entryY=0.5;entryDx=0;entryDy=0;" parent="1" source="CHFiQlu1naVlQ7yCdZNa-46" target="CHFiQlu1naVlQ7yCdZNa-36" edge="1">
          <mxGeometry relative="1" as="geometry" />
        </mxCell>
        <mxCell id="CHFiQlu1naVlQ7yCdZNa-46" value="" style="shape=image;html=1;verticalAlign=top;verticalLabelPosition=bottom;labelBackgroundColor=#ffffff;imageAspect=0;aspect=fixed;image=https://cdn0.iconfinder.com/data/icons/super-mono-reflection/blue/gears_blue.png;dashed=1;" parent="1" vertex="1">
          <mxGeometry x="1098" y="403" width="64" height="64" as="geometry" />
        </mxCell>
        <mxCell id="CHFiQlu1naVlQ7yCdZNa-50" style="edgeStyle=orthogonalEdgeStyle;rounded=0;orthogonalLoop=1;jettySize=auto;html=1;entryX=0;entryY=0.5;entryDx=0;entryDy=0;" parent="1" source="CHFiQlu1naVlQ7yCdZNa-47" target="CHFiQlu1naVlQ7yCdZNa-37" edge="1">
          <mxGeometry relative="1" as="geometry" />
        </mxCell>
        <mxCell id="CHFiQlu1naVlQ7yCdZNa-47" value="" style="shape=image;html=1;verticalAlign=top;verticalLabelPosition=bottom;labelBackgroundColor=#ffffff;imageAspect=0;aspect=fixed;image=https://cdn0.iconfinder.com/data/icons/super-mono-reflection/blue/gears_blue.png;dashed=1;" parent="1" vertex="1">
          <mxGeometry x="1097.97" y="492" width="64" height="64" as="geometry" />
        </mxCell>
        <mxCell id="CHFiQlu1naVlQ7yCdZNa-49" style="edgeStyle=orthogonalEdgeStyle;rounded=0;orthogonalLoop=1;jettySize=auto;html=1;entryX=0;entryY=0.75;entryDx=0;entryDy=0;" parent="1" source="CHFiQlu1naVlQ7yCdZNa-48" target="CHFiQlu1naVlQ7yCdZNa-38" edge="1">
          <mxGeometry relative="1" as="geometry" />
        </mxCell>
        <mxCell id="CHFiQlu1naVlQ7yCdZNa-48" value="" style="shape=image;html=1;verticalAlign=top;verticalLabelPosition=bottom;labelBackgroundColor=#ffffff;imageAspect=0;aspect=fixed;image=https://cdn0.iconfinder.com/data/icons/super-mono-reflection/blue/gears_blue.png;dashed=1;" parent="1" vertex="1">
          <mxGeometry x="1098" y="590" width="64" height="64" as="geometry" />
        </mxCell>
        <mxCell id="CHFiQlu1naVlQ7yCdZNa-53" value="Storage in Snowflake" style="text;html=1;align=center;verticalAlign=middle;resizable=0;points=[];autosize=1;strokeColor=none;" parent="1" vertex="1">
          <mxGeometry x="1250" y="250" width="130" height="20" as="geometry" />
        </mxCell>
      </root>
    </mxGraphModel>
  </diagram>
</mxfile>
